<?xml version="1.0" encoding="utf-8"?>
<!-- Generator: Adobe Illustrator 21.0.2, SVG Export Plug-In . SVG Version: 6.00 Build 0)  -->
<!DOCTYPE svg PUBLIC "-//W3C//DTD SVG 1.1//EN" "http://www.w3.org/Graphics/SVG/1.1/DTD/svg11.dtd">
<svg version="1.1" id="Ebene_1" xmlns="http://www.w3.org/2000/svg" xmlns:xlink="http://www.w3.org/1999/xlink" x="0px" y="0px"
	 viewBox="0 0 841.9 393.6" enable-background="new 0 0 841.9 393.6" xml:space="preserve">
<g id="Logo_Grün">
	<g>
		<g>
			<path d="M34.3,268.1l2.6,2.6c4.6,4.5,9.6,8.3,15,11.4s11.1,4.7,17.1,4.7c1.2,0,2.6-0.2,4.2-0.5s3-0.9,4.3-1.7
				c1.3-0.9,2.4-1.9,3.3-3.3c0.9-1.3,1.3-3,1.3-5s-0.4-3.6-1.1-4.8c-0.8-1.2-1.7-2.1-2.8-2.7c-1.1-0.6-2.4-1.1-3.8-1.4
				s-2.6-0.6-3.7-0.9l-10.3-2.3c-5-1.1-9.7-2.8-14.2-5.2c-4.5-2.4-8.4-5.6-11.8-9.4c-3.4-3.9-6-8.5-8-13.8
				c-1.9-5.3-2.9-11.3-2.9-18.2c0-10.4,1.8-19.7,5.3-27.7c3.5-8.1,8.1-14.9,13.9-20.4s12.3-9.7,19.6-12.6c7.3-2.9,14.8-4.3,22.6-4.3
				c16.2,0,31.2,5.1,44.8,15.4l-13.9,45c-4.4-3.7-9-6.9-14-9.4c-4.9-2.6-10.2-3.8-15.8-3.8c-1.1,0-2.3,0.2-3.6,0.5
				c-1.3,0.3-2.5,0.8-3.6,1.5s-2,1.6-2.7,2.8s-1.1,2.7-1.1,4.5c0,1.7,0.3,3,1,4c0.7,0.9,1.6,1.7,2.6,2.3c1.1,0.6,2.2,1.1,3.4,1.4
				c1.2,0.3,2.3,0.6,3.3,0.9l11.6,3.3c5.4,1.6,10.4,3.7,15,6.3s8.6,6,11.9,10s5.9,8.9,7.8,14.5c1.9,5.6,2.8,12.1,2.8,19.6
				c0,10.6-1.8,19.7-5.3,27.5s-8.1,14.3-13.9,19.6c-5.7,5.3-12.3,9.2-19.7,11.8c-7.4,2.6-14.9,3.9-22.5,3.9c-9,0-18.3-1.4-27.9-4.3
				s-18.4-6.8-26.4-11.8L34.3,268.1z"/>
			<path d="M191.8,331h-54.4l49.1-175.8h56.8L293.7,331h-54.4l-4.7-21.9h-38.8L191.8,331z M225.7,267.4l-6-31
				c-0.7-3.7-1.4-7.5-1.9-11.3s-1-7.6-1.5-11.3h-1.9l-9.4,53.6H225.7z"/>
			<path d="M304.4,155.3h65c8.2,0,15.9,1.3,22.9,4s13.1,6.6,18.2,12s9.1,12.1,12,20.2c2.9,8.1,4.3,17.6,4.3,28.4
				c0,9-1.1,17.1-3.3,24.2c-2.2,7.2-5.3,13.3-9.3,18.3c-4,5.1-8.9,8.9-14.7,11.7c-5.8,2.7-12.3,4.1-19.4,4.1h-26.2V331h-49.5V155.3z
				 M353.9,233.8h5.1c2.2,0,4.5-0.2,6.7-0.5c2.3-0.3,4.2-1,6-2.2s3.2-2.8,4.3-4.9c1.1-2.1,1.7-4.9,1.7-8.5c0-3.4-0.6-6.1-1.8-8
				c-1.2-1.9-2.7-3.4-4.5-4.3c-1.8-0.9-3.8-1.5-6.1-1.8c-2.2-0.2-4.4-0.3-6.6-0.3h-4.9L353.9,233.8L353.9,233.8z"/>
			<path d="M440.9,155.3h49.5v59.2h31.5v-59.2h49.5V331h-49.5v-61h-31.5v61h-49.5L440.9,155.3L440.9,155.3z"/>
			<path d="M669.9,155.3h62c8,0,15.6,1.1,22.7,3.3c7.1,2.2,13.4,5.7,18.7,10.6c5.4,4.9,9.6,11.2,12.7,19c3.1,7.8,4.7,17.2,4.7,28.2
				c0,6.7-0.5,12.4-1.6,17.3c-1.1,4.8-2.7,9-5,12.6s-5.1,6.6-8.5,9.1s-7.5,4.7-12.3,6.8v1.4c1.4,1.2,2.8,2.6,4.3,4.2
				s2.9,3.7,4.3,6.3l30.7,57.1h-59.2l-22.5-56.4H720V331h-50.2L669.9,155.3L669.9,155.3z M720.2,233.1h3.6c2.1,0,4.2-0.2,6.2-0.5
				s3.8-1,5.4-2c1.6-1,2.9-2.5,3.8-4.4c0.9-1.9,1.4-4.5,1.4-7.8c0-3.4-0.4-6.1-1.3-8c-0.9-1.9-2.1-3.5-3.6-4.5
				c-1.5-1.1-3.3-1.8-5.2-2.1c-2-0.3-4.1-0.5-6.4-0.5h-3.9V233.1z"/>
		</g>
		<g>
			<path d="M809.4,191.8c-2.7,0-5.2-0.5-7.6-1.5c-2.3-1-4.4-2.4-6.1-4.1c-1.7-1.8-3.1-3.8-4.1-6.1s-1.5-4.8-1.5-7.5s0.5-5.2,1.5-7.5
				s2.4-4.4,4.1-6.1c1.7-1.8,3.8-3.1,6.1-4.1s4.9-1.5,7.6-1.5c2.7,0,5.2,0.5,7.5,1.5c2.4,1,4.4,2.4,6.1,4.1c1.7,1.7,3.1,3.8,4.1,6.1
				s1.5,4.8,1.5,7.5s-0.5,5.2-1.5,7.5s-2.4,4.4-4.1,6.1c-1.7,1.8-3.8,3.1-6.1,4.1C814.6,191.3,812.1,191.8,809.4,191.8z
				 M809.4,156.5c-2.2,0-4.3,0.4-6.3,1.2s-3.7,2-5.1,3.4c-1.5,1.4-2.6,3.1-3.5,5.1s-1.3,4.1-1.3,6.4c0,2.2,0.4,4.4,1.3,6.3
				c0.9,2,2,3.7,3.5,5.1c1.5,1.4,3.2,2.6,5.1,3.4c2,0.8,4,1.2,6.3,1.2c2.2,0,4.3-0.4,6.2-1.2c2-0.8,3.7-2,5.1-3.4
				c1.5-1.4,2.6-3.1,3.5-5.1s1.3-4.1,1.3-6.3c0-2.3-0.4-4.4-1.3-6.4c-0.9-2-2-3.7-3.5-5.1c-1.5-1.4-3.2-2.6-5.1-3.4
				C813.7,156.9,811.6,156.5,809.4,156.5z M818.2,183.5h-3.6l-5.5-10h-4v10H802v-21.6h9.1c1,0,1.9,0.1,2.8,0.2
				c0.9,0.2,1.7,0.5,2.4,0.9s1.2,1,1.6,1.8c0.4,0.7,0.6,1.7,0.6,2.8s-0.2,2-0.5,2.7s-0.8,1.3-1.3,1.8s-1.2,0.8-1.9,1
				s-1.4,0.3-2.1,0.4L818.2,183.5z M805.1,165v5.4h3.3c0.7,0,1.5,0,2.3,0s1.6,0,2.2-0.1c0.7-0.1,1.3-0.3,1.7-0.7
				c0.5-0.3,0.7-0.9,0.7-1.6c0-0.7-0.1-1.2-0.4-1.6c-0.3-0.4-0.6-0.7-1.1-0.9s-1-0.3-1.6-0.4c-0.6,0-1.2-0.1-1.9-0.1L805.1,165
				L805.1,165z"/>
		</g>
		<g>
			<path d="M456.2,358.2l-2.9-1.1c-2.6-1-5.7-2.7-5.7-5.9c0-3.6,3.6-5.8,6.8-5.8c3.1,0,5.1,1.3,6.6,3.8l4.1-2.4
				c-2.2-4-6-6.2-10.5-6.2c-6.2,0-12.1,4-12.1,10.6c0,5.7,4.2,8.4,8.9,10.4l2.8,1.2c3.5,1.5,7,3.4,7,7.8c0,4.3-3.1,8-7.5,8
				s-8-3.3-7.9-7.8l-5.2,1.1c0.9,6.6,6,11.5,12.6,11.5c7.3,0,13.1-5.3,13.1-12.8C466.3,363.7,462,360.5,456.2,358.2z"/>
			<path d="M482.7,356.3c-7.6,0-13.6,5.9-13.6,13.5c0,7.7,6,13.5,13.6,13.5s13.6-5.9,13.6-13.5C496.2,362.1,490.3,356.3,482.7,356.3
				z M482.7,378.6c-4.8,0-8.7-4.1-8.7-8.8c0-4.8,3.9-8.8,8.7-8.8c4.8,0,8.7,4,8.7,8.8C491.4,374.5,487.5,378.6,482.7,378.6z"/>
			<path d="M501.7,344.7V357h-2.2v4.6h2.2v20.8h4.9v-20.8h6.7V357h-6.7v-10.9c0-2.5,0-6.9,3.5-6.9c1,0,2.3,0.6,3.3,1v-4.9
				c-1.1-0.4-2.2-0.6-3.4-0.6C503.6,334.7,501.7,339.1,501.7,344.7z"/>
			<polygon points="552.2,373.2 544.8,355.6 537.3,373.2 529.9,357 526,357 524.4,357 521.2,357 521.2,347.3 516.3,347.3 516.3,357 
				513.7,357 513.7,361.6 516.3,361.6 516.3,382.4 521.2,382.4 521.2,361.6 526,361.6 526,360.2 537.3,383.3 544.8,366.3 
				552.2,383.3 565.1,357 559.6,357 			"/>
			<path d="M586.5,361.3L586.5,361.3c-2.1-3-5.1-5-8.9-5c-7.4,0-12,6.3-12,13.3c0,7.3,4.4,13.7,12.2,13.7c3.6,0,6.7-2,8.6-4.8h0.1v4
				h4.9V357h-4.9V361.3z M578.5,378.9c-5.2,0-8-4.5-8-9.2s3-9.1,8-9.1c5.3,0,8.2,4.2,8.2,9.1C586.8,374.7,583.9,378.9,578.5,378.9z"
				/>
			<path d="M603.1,361.1L603.1,361.1L603,357h-4.9v25.4h4.9v-12.5c0-4.1,0.7-9,5.9-9c1.1,0,2.1,0.3,3,1l2.2-4.5
				c-1.2-0.8-2.6-1.2-4-1.2C606.8,356.3,604.3,358.2,603.1,361.1z"/>
			<path d="M627.2,356.3c-8.2,0-12.4,5.9-12.4,13.7c0,7.5,4.7,13.4,12.5,13.4c4.9,0,9.4-2.6,11.8-7L635,374c-1.8,3-3.8,4.9-7.6,4.9
				c-4.7,0-7.6-4.1-7.6-8.4h19.4v-0.8C639.1,362.2,635.3,356.3,627.2,356.3z M620,366.8c0.6-3.6,3.4-6.3,7.2-6.3
				c3.9,0,6.4,2.5,7,6.3H620z"/>
			<path d="M680.5,366.5h10.6c-0.2,6.7-7.1,12.1-13.4,12.1c-8.8,0-15.9-8.1-15.9-16.7c0-9.2,7.2-16.6,16.3-16.6
				c5,0,9.9,2.7,12.9,6.7l3.6-3.4c-4-5.1-10.3-7.9-16.7-7.9c-11.8,0-21.2,9.7-21.2,21.4c0,11.3,9.2,21.2,20.7,21.2
				s19.4-8.6,19.4-19.9v-1.6h-16.2L680.5,366.5L680.5,366.5z"/>
			<path d="M728,356.3c-3.2,0-6.2,1.8-7.8,4.5c-1.6-2.8-4-4.5-7.3-4.5c-2.8,0-5.3,1.7-6.7,4H706V357h-4.9v25.4h4.9v-12.5
				c0-4,0.4-9.3,5.6-9.3c4.5,0,4.7,5,4.7,8.4v13.5h4.9V370c0-3.9,0.4-9.3,5.6-9.3c4.3,0,4.7,4.2,4.7,7.4v14.4h4.9v-15.2
				C736.4,361.5,734.6,356.3,728,356.3z"/>
			<path d="M756.4,356.3c-3.8,0-6.8,2-8.8,5h-0.1v-25.9h-4.9v47.1h4.9v-4h0.1c1.9,2.9,5,4.8,8.6,4.8c7.8,0,12.2-6.5,12.2-13.7
				C768.3,362.6,763.7,356.3,756.4,356.3z M755.2,378.9c-5.1,0-8-4.5-8-9.2s3-9.1,8-9.1c5.3,0,8.2,4.2,8.2,9.1
				C763.4,374.7,760.5,378.9,755.2,378.9z"/>
			<polygon points="797.7,341.5 797.7,358 778.3,358 778.3,341.5 773.2,341.5 773.2,382.4 778.3,382.4 778.3,362.8 797.7,362.8 
				797.7,382.4 802.8,382.4 802.8,341.5 			"/>
		</g>
		<polygon points="620.1,194 594.8,165.4 594.8,331 646.1,331 646.1,166.1 		"/>
		<polygon points="620.5,10.1 535.7,10.1 498,54.9 620.5,187.4 743,54.9 705.3,10.1 		"/>
		<g>
			<g>
				<defs>
					<polygon id="SVGID_5_" points="529.8,56.5 591.8,127.3 559.5,56.5 					"/>
				</defs>
				<clipPath id="SVGID_6_">
					<use xlink:href="#SVGID_5_"  overflow="visible"/>
				</clipPath>
				
					<linearGradient id="SVGID_7_" gradientUnits="userSpaceOnUse" x1="-2465.2178" y1="1274.936" x2="-2457.5063" y2="1274.936" gradientTransform="matrix(0 -9.1812 9.1812 0 -11144.5928 -22506.3574)">
					<stop  offset="0" style="stop-color:#FFFFFF"/>
					<stop  offset="0" style="stop-color:#FFFFFF"/>
					<stop  offset="1" style="stop-color:#009F80"/>
				</linearGradient>
				<rect x="529.8" y="56.5" clip-path="url(#SVGID_6_)" fill="url(#SVGID_7_)" width="62.1" height="70.8"/>
			</g>
		</g>
		<g>
			<g>
				<defs>
					<polygon id="SVGID_8_" points="562.7,56.5 600.8,138.9 619.1,56.5 					"/>
				</defs>
				<clipPath id="SVGID_9_">
					<use xlink:href="#SVGID_8_"  overflow="visible"/>
				</clipPath>
				
					<linearGradient id="SVGID_10_" gradientUnits="userSpaceOnUse" x1="-2442.4202" y1="1241.6357" x2="-2434.7107" y2="1241.6357" gradientTransform="matrix(0 -10.688 10.688 0 -12679.7021 -25965.6855)">
					<stop  offset="0" style="stop-color:#FFFFFF"/>
					<stop  offset="0" style="stop-color:#FFFFFF"/>
					<stop  offset="1" style="stop-color:#009F80"/>
				</linearGradient>
				<rect x="562.7" y="56.5" clip-path="url(#SVGID_9_)" fill="url(#SVGID_10_)" width="56.4" height="82.4"/>
			</g>
		</g>
		<g>
			<g>
				<defs>
					<polygon id="SVGID_11_" points="570.9,129.6 614.7,177.2 595,134.2 536.4,68.6 					"/>
				</defs>
				<clipPath id="SVGID_12_">
					<use xlink:href="#SVGID_11_"  overflow="visible"/>
				</clipPath>
				
					<linearGradient id="SVGID_13_" gradientUnits="userSpaceOnUse" x1="-2409.7849" y1="1187.7297" x2="-2402.0764" y2="1187.7297" gradientTransform="matrix(0 -14.0757 14.0757 0 -16142.5771 -33742.3086)">
					<stop  offset="0" style="stop-color:#FFFFFF"/>
					<stop  offset="0" style="stop-color:#FFFFFF"/>
					<stop  offset="1" style="stop-color:#009F80"/>
				</linearGradient>
				<rect x="536.4" y="68.6" clip-path="url(#SVGID_12_)" fill="url(#SVGID_13_)" width="78.3" height="108.5"/>
			</g>
		</g>
		<g>
			<g>
				<defs>
					<polygon id="SVGID_14_" points="515.7,56.5 525.3,80.3 562.2,120.3 527.4,56.5 					"/>
				</defs>
				<clipPath id="SVGID_15_">
					<use xlink:href="#SVGID_14_"  overflow="visible"/>
				</clipPath>
				
					<linearGradient id="SVGID_16_" gradientUnits="userSpaceOnUse" x1="-2482.8582" y1="1300.3119" x2="-2475.1489" y2="1300.3119" gradientTransform="matrix(0 -8.2759 8.2759 0 -10222.3506 -20427.584)">
					<stop  offset="0" style="stop-color:#FFFFFF"/>
					<stop  offset="0" style="stop-color:#FFFFFF"/>
					<stop  offset="1" style="stop-color:#009F80"/>
				</linearGradient>
				<rect x="515.7" y="56.5" clip-path="url(#SVGID_15_)" fill="url(#SVGID_16_)" width="46.4" height="63.8"/>
			</g>
		</g>
		<g>
			<g>
				<defs>
					<polygon id="SVGID_17_" points="503.8,56.5 521.4,76.8 512.8,56.5 					"/>
				</defs>
				<clipPath id="SVGID_18_">
					<use xlink:href="#SVGID_17_"  overflow="visible"/>
				</clipPath>
				
					<linearGradient id="SVGID_19_" gradientUnits="userSpaceOnUse" x1="-2865.6721" y1="1887.2214" x2="-2857.9648" y2="1887.2214" gradientTransform="matrix(0 -2.6382 2.6382 0 -4466.3174 -7483.3901)">
					<stop  offset="0" style="stop-color:#FFFFFF"/>
					<stop  offset="0" style="stop-color:#FFFFFF"/>
					<stop  offset="1" style="stop-color:#009F80"/>
				</linearGradient>
				<rect x="503.8" y="56.5" clip-path="url(#SVGID_18_)" fill="url(#SVGID_19_)" width="17.5" height="20.3"/>
			</g>
		</g>
		<g>
			<g>
				<defs>
					<polygon id="SVGID_20_" points="562.2,53.5 617.3,53.5 570.3,27 					"/>
				</defs>
				<clipPath id="SVGID_21_">
					<use xlink:href="#SVGID_20_"  overflow="visible"/>
				</clipPath>
				
					<linearGradient id="SVGID_22_" gradientUnits="userSpaceOnUse" x1="-2726.0078" y1="1703.0828" x2="-2718.2959" y2="1703.0828" gradientTransform="matrix(0 -3.4492 3.4492 0 -5284.5229 -9348.998)">
					<stop  offset="0" style="stop-color:#FFFFFF"/>
					<stop  offset="0" style="stop-color:#FFFFFF"/>
					<stop  offset="1" style="stop-color:#009F80"/>
				</linearGradient>
				<rect x="562.2" y="27" clip-path="url(#SVGID_21_)" fill="url(#SVGID_22_)" width="55.1" height="26.6"/>
			</g>
		</g>
		<g>
			<g>
				<defs>
					<path id="SVGID_23_" d="M530.8,53.5h28.6l8.3-26.6l-1.6-1.2C548.5,37.7,536.7,47,530.8,53.5"/>
				</defs>
				<clipPath id="SVGID_24_">
					<use xlink:href="#SVGID_23_"  overflow="visible"/>
				</clipPath>
				
					<linearGradient id="SVGID_25_" gradientUnits="userSpaceOnUse" x1="-2707.1558" y1="1663.3525" x2="-2699.4504" y2="1663.3525" gradientTransform="matrix(0 -3.6079 3.6079 0 -5451.9595 -9713.5986)">
					<stop  offset="0" style="stop-color:#FFFFFF"/>
					<stop  offset="0" style="stop-color:#FFFFFF"/>
					<stop  offset="1" style="stop-color:#009F80"/>
				</linearGradient>
				<rect x="530.8" y="25.7" clip-path="url(#SVGID_24_)" fill="url(#SVGID_25_)" width="36.9" height="27.8"/>
			</g>
		</g>
		<g>
			<g>
				<defs>
					<path id="SVGID_26_" d="M523.6,30.2l4.3,22.1c9.3-9.9,21.3-19.5,35.8-28.6l-18-11.2L523.6,30.2z"/>
				</defs>
				<clipPath id="SVGID_27_">
					<use xlink:href="#SVGID_26_"  overflow="visible"/>
				</clipPath>
				
					<linearGradient id="SVGID_28_" gradientUnits="userSpaceOnUse" x1="-2583.1948" y1="1468.7928" x2="-2575.4922" y2="1468.7928" gradientTransform="matrix(0 -5.167 5.167 0 -7045.6025 -13295.168)">
					<stop  offset="0" style="stop-color:#FFFFFF"/>
					<stop  offset="0" style="stop-color:#FFFFFF"/>
					<stop  offset="1" style="stop-color:#009F80"/>
				</linearGradient>
				<rect x="523.6" y="12.4" clip-path="url(#SVGID_27_)" fill="url(#SVGID_28_)" width="40.1" height="39.8"/>
			</g>
		</g>
		<g>
			<g>
				<defs>
					<polygon id="SVGID_29_" points="519.2,33.4 514.9,53.5 526,53.5 521.4,32.3 					"/>
				</defs>
				<clipPath id="SVGID_30_">
					<use xlink:href="#SVGID_29_"  overflow="visible"/>
				</clipPath>
				
					<linearGradient id="SVGID_31_" gradientUnits="userSpaceOnUse" x1="-2833.7722" y1="1852.4252" x2="-2826.0608" y2="1852.4252" gradientTransform="matrix(0 -2.7563 2.7563 0 -4585.3896 -7757.1777)">
					<stop  offset="0" style="stop-color:#FFFFFF"/>
					<stop  offset="0" style="stop-color:#FFFFFF"/>
					<stop  offset="1" style="stop-color:#009F80"/>
				</linearGradient>
				<rect x="514.9" y="32.3" clip-path="url(#SVGID_30_)" fill="url(#SVGID_31_)" width="11.1" height="21.3"/>
			</g>
		</g>
		<g>
			<g>
				<defs>
					<path id="SVGID_32_" d="M552.1,12.9l15.1,9.6c6.6-3.7,14.7-6.9,24.4-9.6H552.1z"/>
				</defs>
				<clipPath id="SVGID_33_">
					<use xlink:href="#SVGID_32_"  overflow="visible"/>
				</clipPath>
				
					<linearGradient id="SVGID_34_" gradientUnits="userSpaceOnUse" x1="-3460.8716" y1="2892.408" x2="-3453.167" y2="2892.408" gradientTransform="matrix(0 -1.248 1.248 0 -3037.875 -4296.6436)">
					<stop  offset="0" style="stop-color:#FFFFFF"/>
					<stop  offset="0" style="stop-color:#FFFFFF"/>
					<stop  offset="1" style="stop-color:#009F80"/>
				</linearGradient>
				<rect x="552.1" y="12.9" clip-path="url(#SVGID_33_)" fill="url(#SVGID_34_)" width="39.5" height="9.6"/>
			</g>
		</g>
		<g>
			<g>
				<defs>
					<polygon id="SVGID_35_" points="503.2,53.5 512.5,53.5 515.4,38 					"/>
				</defs>
				<clipPath id="SVGID_36_">
					<use xlink:href="#SVGID_35_"  overflow="visible"/>
				</clipPath>
				
					<linearGradient id="SVGID_37_" gradientUnits="userSpaceOnUse" x1="-3029.5381" y1="2150.5906" x2="-3021.8279" y2="2150.5906" gradientTransform="matrix(0 -2.02 2.02 0 -3834.8928 -6066.1187)">
					<stop  offset="0" style="stop-color:#FFFFFF"/>
					<stop  offset="0" style="stop-color:#FFFFFF"/>
					<stop  offset="1" style="stop-color:#009F80"/>
				</linearGradient>
				<rect x="503.2" y="38" clip-path="url(#SVGID_36_)" fill="url(#SVGID_37_)" width="12.2" height="15.6"/>
			</g>
		</g>
		<g>
			<g>
				<defs>
					<polygon id="SVGID_38_" points="681.4,56.5 649.1,127.3 711.1,56.5 					"/>
				</defs>
				<clipPath id="SVGID_39_">
					<use xlink:href="#SVGID_38_"  overflow="visible"/>
				</clipPath>
				
					<linearGradient id="SVGID_40_" gradientUnits="userSpaceOnUse" x1="-2465.2178" y1="1286.2443" x2="-2457.5063" y2="1286.2443" gradientTransform="matrix(0 -9.1812 9.1812 0 -11129.1162 -22506.3574)">
					<stop  offset="0" style="stop-color:#FFFFFF"/>
					<stop  offset="0" style="stop-color:#FFFFFF"/>
					<stop  offset="1" style="stop-color:#009F80"/>
				</linearGradient>
				<rect x="649.1" y="56.5" clip-path="url(#SVGID_39_)" fill="url(#SVGID_40_)" width="62.1" height="70.8"/>
			</g>
		</g>
		<g>
			<g>
				<defs>
					<polygon id="SVGID_41_" points="621.8,56.5 640.1,138.9 678.2,56.5 					"/>
				</defs>
				<clipPath id="SVGID_42_">
					<use xlink:href="#SVGID_41_"  overflow="visible"/>
				</clipPath>
				
					<linearGradient id="SVGID_43_" gradientUnits="userSpaceOnUse" x1="-2442.4202" y1="1246.4482" x2="-2434.7107" y2="1246.4482" gradientTransform="matrix(0 -10.688 10.688 0 -12672.0381 -25965.6855)">
					<stop  offset="0" style="stop-color:#FFFFFF"/>
					<stop  offset="0" style="stop-color:#FFFFFF"/>
					<stop  offset="1" style="stop-color:#009F80"/>
				</linearGradient>
				<rect x="621.8" y="56.5" clip-path="url(#SVGID_42_)" fill="url(#SVGID_43_)" width="56.4" height="82.4"/>
			</g>
		</g>
		<g>
			<g>
				<defs>
					<polygon id="SVGID_44_" points="645.9,134.2 626.2,177.2 670.1,129.6 704.5,68.6 					"/>
				</defs>
				<clipPath id="SVGID_45_">
					<use xlink:href="#SVGID_44_"  overflow="visible"/>
				</clipPath>
				
					<linearGradient id="SVGID_46_" gradientUnits="userSpaceOnUse" x1="-2062.3308" y1="1173.339" x2="-2054.6177" y2="1173.339" gradientTransform="matrix(10.1514 0 0 10.1514 21561.7441 -11788.1836)">
					<stop  offset="0" style="stop-color:#FFFFFF"/>
					<stop  offset="0" style="stop-color:#FFFFFF"/>
					<stop  offset="1" style="stop-color:#009F80"/>
				</linearGradient>
				<rect x="626.2" y="68.6" clip-path="url(#SVGID_45_)" fill="url(#SVGID_46_)" width="78.3" height="108.5"/>
			</g>
		</g>
		<g>
			<g>
				<defs>
					<polygon id="SVGID_47_" points="713.5,56.5 678.8,120.3 715.7,80.3 725.2,56.5 					"/>
				</defs>
				<clipPath id="SVGID_48_">
					<use xlink:href="#SVGID_47_"  overflow="visible"/>
				</clipPath>
				
					<linearGradient id="SVGID_49_" gradientUnits="userSpaceOnUse" x1="-2482.8582" y1="1317.4642" x2="-2475.1489" y2="1317.4642" gradientTransform="matrix(0 -8.2759 8.2759 0 -10201.2021 -20427.584)">
					<stop  offset="0" style="stop-color:#FFFFFF"/>
					<stop  offset="0" style="stop-color:#FFFFFF"/>
					<stop  offset="1" style="stop-color:#009F80"/>
				</linearGradient>
				<rect x="678.8" y="56.5" clip-path="url(#SVGID_48_)" fill="url(#SVGID_49_)" width="46.4" height="63.8"/>
			</g>
		</g>
		<g>
			<g>
				<defs>
					<polygon id="SVGID_50_" points="728.1,56.5 719.6,76.8 737.1,56.5 					"/>
				</defs>
				<clipPath id="SVGID_51_">
					<use xlink:href="#SVGID_50_"  overflow="visible"/>
				</clipPath>
				
					<linearGradient id="SVGID_52_" gradientUnits="userSpaceOnUse" x1="-2865.6721" y1="1958.4128" x2="-2857.9648" y2="1958.4128" gradientTransform="matrix(0 -2.6382 2.6382 0 -4438.335 -7483.3901)">
					<stop  offset="0" style="stop-color:#FFFFFF"/>
					<stop  offset="0" style="stop-color:#FFFFFF"/>
					<stop  offset="1" style="stop-color:#009F80"/>
				</linearGradient>
				<rect x="719.6" y="56.5" clip-path="url(#SVGID_51_)" fill="url(#SVGID_52_)" width="17.5" height="20.3"/>
			</g>
		</g>
		<g>
			<g>
				<defs>
					<polygon id="SVGID_53_" points="623.7,53.5 678.8,53.5 670.6,27 					"/>
				</defs>
				<clipPath id="SVGID_54_">
					<use xlink:href="#SVGID_53_"  overflow="visible"/>
				</clipPath>
				
					<linearGradient id="SVGID_55_" gradientUnits="userSpaceOnUse" x1="-2726.0078" y1="1718.5992" x2="-2718.2959" y2="1718.5992" gradientTransform="matrix(0 -3.4492 3.4492 0 -5276.5425 -9348.998)">
					<stop  offset="0" style="stop-color:#FFFFFF"/>
					<stop  offset="0" style="stop-color:#FFFFFF"/>
					<stop  offset="1" style="stop-color:#009F80"/>
				</linearGradient>
				<rect x="623.7" y="27" clip-path="url(#SVGID_54_)" fill="url(#SVGID_55_)" width="55.1" height="26.6"/>
			</g>
		</g>
		<g>
			<g>
				<defs>
					<path id="SVGID_56_" d="M673.2,27l8.3,26.6h28.6c-5.8-6.6-17.6-15.9-35.3-27.8L673.2,27z"/>
				</defs>
				<clipPath id="SVGID_57_">
					<use xlink:href="#SVGID_56_"  overflow="visible"/>
				</clipPath>
				
					<linearGradient id="SVGID_58_" gradientUnits="userSpaceOnUse" x1="-2707.1558" y1="1697.7058" x2="-2699.4504" y2="1697.7058" gradientTransform="matrix(0 -3.6079 3.6079 0 -5433.5024 -9713.5986)">
					<stop  offset="0" style="stop-color:#FFFFFF"/>
					<stop  offset="0" style="stop-color:#FFFFFF"/>
					<stop  offset="1" style="stop-color:#009F80"/>
				</linearGradient>
				<rect x="673.2" y="25.7" clip-path="url(#SVGID_57_)" fill="url(#SVGID_58_)" width="36.9" height="27.8"/>
			</g>
		</g>
		<g>
			<g>
				<defs>
					<path id="SVGID_59_" d="M677.2,23.6c14.6,9.1,26.5,18.7,35.8,28.6l4.3-22.1l-22-17.8L677.2,23.6z"/>
				</defs>
				<clipPath id="SVGID_60_">
					<use xlink:href="#SVGID_59_"  overflow="visible"/>
				</clipPath>
				
					<linearGradient id="SVGID_61_" gradientUnits="userSpaceOnUse" x1="-2583.1948" y1="1494.6659" x2="-2575.4922" y2="1494.6659" gradientTransform="matrix(0 -5.167 5.167 0 -7025.6885 -13295.168)">
					<stop  offset="0" style="stop-color:#FFFFFF"/>
					<stop  offset="0" style="stop-color:#FFFFFF"/>
					<stop  offset="1" style="stop-color:#009F80"/>
				</linearGradient>
				<rect x="677.2" y="12.4" clip-path="url(#SVGID_60_)" fill="url(#SVGID_61_)" width="40.1" height="39.8"/>
			</g>
		</g>
		<g>
			<g>
				<defs>
					<polygon id="SVGID_62_" points="714.9,53.5 726,53.5 721.7,33.4 719.6,32.3 					"/>
				</defs>
				<clipPath id="SVGID_63_">
					<use xlink:href="#SVGID_62_"  overflow="visible"/>
				</clipPath>
				
					<linearGradient id="SVGID_64_" gradientUnits="userSpaceOnUse" x1="-2833.7722" y1="1915.5774" x2="-2826.0608" y2="1915.5774" gradientTransform="matrix(0 -2.7563 2.7563 0 -4559.4561 -7757.1777)">
					<stop  offset="0" style="stop-color:#FFFFFF"/>
					<stop  offset="0" style="stop-color:#FFFFFF"/>
					<stop  offset="1" style="stop-color:#009F80"/>
				</linearGradient>
				<rect x="714.9" y="32.3" clip-path="url(#SVGID_63_)" fill="url(#SVGID_64_)" width="11.1" height="21.3"/>
			</g>
		</g>
		<g>
			<g>
				<defs>
					<path id="SVGID_65_" d="M649.4,12.9c9.7,2.7,17.8,5.9,24.4,9.6l15.1-9.6H649.4z"/>
				</defs>
				<clipPath id="SVGID_66_">
					<use xlink:href="#SVGID_65_"  overflow="visible"/>
				</clipPath>
				
					<linearGradient id="SVGID_67_" gradientUnits="userSpaceOnUse" x1="-3460.8716" y1="2960.2644" x2="-3453.167" y2="2960.2644" gradientTransform="matrix(0 -1.248 1.248 0 -3025.2598 -4296.6436)">
					<stop  offset="0" style="stop-color:#FFFFFF"/>
					<stop  offset="0" style="stop-color:#FFFFFF"/>
					<stop  offset="1" style="stop-color:#009F80"/>
				</linearGradient>
				<rect x="649.4" y="12.9" clip-path="url(#SVGID_66_)" fill="url(#SVGID_67_)" width="39.5" height="9.6"/>
			</g>
		</g>
		<g>
			<g>
				<defs>
					<polygon id="SVGID_68_" points="728.5,53.5 737.8,53.5 725.6,38 					"/>
				</defs>
				<clipPath id="SVGID_69_">
					<use xlink:href="#SVGID_68_"  overflow="visible"/>
				</clipPath>
				
					<linearGradient id="SVGID_70_" gradientUnits="userSpaceOnUse" x1="-3029.5381" y1="2246.4084" x2="-3021.8279" y2="2246.4084" gradientTransform="matrix(0 -2.02 2.02 0 -3806.0452 -6066.1187)">
					<stop  offset="0" style="stop-color:#FFFFFF"/>
					<stop  offset="0" style="stop-color:#FFFFFF"/>
					<stop  offset="1" style="stop-color:#009F80"/>
				</linearGradient>
				<rect x="725.6" y="38" clip-path="url(#SVGID_69_)" fill="url(#SVGID_70_)" width="12.2" height="15.6"/>
			</g>
		</g>
		<g>
			<g>
				<defs>
					<polygon id="SVGID_71_" points="716.8,27.1 704.8,12.6 698.4,12.4 					"/>
				</defs>
				<clipPath id="SVGID_72_">
					<use xlink:href="#SVGID_71_"  overflow="visible"/>
				</clipPath>
				
					<linearGradient id="SVGID_73_" gradientUnits="userSpaceOnUse" x1="-3061.4429" y1="2308.7966" x2="-3053.7317" y2="2308.7966" gradientTransform="matrix(0 -1.9063 1.9063 0 -3693.6089 -5808.9287)">
					<stop  offset="0" style="stop-color:#FFFFFF"/>
					<stop  offset="0" style="stop-color:#FFFFFF"/>
					<stop  offset="1" style="stop-color:#009F80"/>
				</linearGradient>
				<rect x="698.4" y="12.4" clip-path="url(#SVGID_72_)" fill="url(#SVGID_73_)" width="18.5" height="14.7"/>
			</g>
		</g>
		<g>
			<g>
				<defs>
					<polygon id="SVGID_74_" points="536,12.6 524,27.1 542.4,12.4 					"/>
				</defs>
				<clipPath id="SVGID_75_">
					<use xlink:href="#SVGID_74_"  overflow="visible"/>
				</clipPath>
				
					<linearGradient id="SVGID_76_" gradientUnits="userSpaceOnUse" x1="-3061.4429" y1="-185.5492" x2="-3053.7317" y2="-185.5492" gradientTransform="matrix(0 -1.9063 -1.9063 0 179.5376 -5808.9287)">
					<stop  offset="0" style="stop-color:#FFFFFF"/>
					<stop  offset="0" style="stop-color:#FFFFFF"/>
					<stop  offset="1" style="stop-color:#009F80"/>
				</linearGradient>
				<rect x="524" y="12.4" clip-path="url(#SVGID_75_)" fill="url(#SVGID_76_)" width="18.5" height="14.7"/>
			</g>
		</g>
		<g>
			<g>
				<defs>
					<polygon id="SVGID_77_" points="602.4,143.7 620.5,182.6 638.5,143.7 620.5,63.3 					"/>
				</defs>
				<clipPath id="SVGID_78_">
					<use xlink:href="#SVGID_77_"  overflow="visible"/>
				</clipPath>
				
					<linearGradient id="SVGID_79_" gradientUnits="userSpaceOnUse" x1="-2399.8801" y1="1175.2183" x2="-2392.1702" y2="1175.2183" gradientTransform="matrix(0 -15.4736 15.4736 0 -17564.4062 -36952.1875)">
					<stop  offset="0" style="stop-color:#FFFFFF"/>
					<stop  offset="0" style="stop-color:#FFFFFF"/>
					<stop  offset="1" style="stop-color:#009F80"/>
				</linearGradient>
				<rect x="602.4" y="63.3" clip-path="url(#SVGID_78_)" fill="url(#SVGID_79_)" width="36.1" height="119.3"/>
			</g>
		</g>
		<g>
			<g>
				<defs>
					<path id="SVGID_80_" d="M571.4,24.1l49.1,28.3l49.1-28.3c-15-8-31.4-12-49.1-12C602.8,12.2,586.4,16.2,571.4,24.1"/>
				</defs>
				<clipPath id="SVGID_81_">
					<use xlink:href="#SVGID_80_"  overflow="visible"/>
				</clipPath>
				
					<linearGradient id="SVGID_82_" gradientUnits="userSpaceOnUse" x1="-2579.5962" y1="1475.8667" x2="-2571.8862" y2="1475.8667" gradientTransform="matrix(0 -5.2339 5.2339 0 -7104.0391 -13448.8486)">
					<stop  offset="0" style="stop-color:#FFFFFF"/>
					<stop  offset="0" style="stop-color:#FFFFFF"/>
					<stop  offset="1" style="stop-color:#009F80"/>
				</linearGradient>
				<rect x="571.4" y="12.1" clip-path="url(#SVGID_81_)" fill="url(#SVGID_82_)" width="98.2" height="40.4"/>
			</g>
		</g>
	</g>
</g>
</svg>
