<?xml version="1.0" encoding="utf-8"?>
<svg viewBox="1.528 0 536.389 389.527" xmlns="http://www.w3.org/2000/svg" xmlns:xlink="http://www.w3.org/1999/xlink">
  <g id="Logo_Grün" transform="matrix(2.189753, 0, 0, 2.189753, -1089.723022, -21.181841)" style="">
    <g>
      <g/>
      <g/>
      <g/>
      <polygon points="620.5,10.1 535.7,10.1 498,54.9 620.5,187.4 743,54.9 705.3,10.1 &#9;&#9;"/>
      <g>
        <g>
          <defs>
            <polygon id="SVGID_5_" points="529.8,56.5 591.8,127.3 559.5,56.5 &#9;&#9;&#9;&#9;&#9;"/>
          </defs>
          <clipPath id="SVGID_6_">
            <polygon points="529.8,56.5 591.8,127.3 559.5,56.5 &#9;&#9;&#9;&#9;&#9;" transform="matrix(1, 0, 0, 1, 0, 0)" overflow="visible"/>
          </clipPath>
          <linearGradient id="SVGID_7_" gradientUnits="userSpaceOnUse" x1="-2465.2178" y1="1274.936" x2="-2457.5063" y2="1274.936" gradientTransform="matrix(0 -9.1812 9.1812 0 -11144.5928 -22506.3574)">
            <stop offset="0" style="stop-color:#FFFFFF"/>
            <stop offset="0" style="stop-color:#FFFFFF"/>
            <stop offset="1" style="stop-color:#009F80"/>
          </linearGradient>
          <rect x="529.8" y="56.5" clip-path="url(#SVGID_6_)" fill="url(#SVGID_7_)" width="62.1" height="70.8"/>
        </g>
      </g>
      <g>
        <g>
          <defs>
            <polygon id="SVGID_8_" points="562.7,56.5 600.8,138.9 619.1,56.5 &#9;&#9;&#9;&#9;&#9;"/>
          </defs>
          <clipPath id="SVGID_9_">
            <polygon points="562.7,56.5 600.8,138.9 619.1,56.5 &#9;&#9;&#9;&#9;&#9;" transform="matrix(1, 0, 0, 1, 0, 0)" overflow="visible"/>
          </clipPath>
          <linearGradient id="SVGID_10_" gradientUnits="userSpaceOnUse" x1="-2442.4202" y1="1241.6357" x2="-2434.7107" y2="1241.6357" gradientTransform="matrix(0 -10.688 10.688 0 -12679.7021 -25965.6855)">
            <stop offset="0" style="stop-color:#FFFFFF"/>
            <stop offset="0" style="stop-color:#FFFFFF"/>
            <stop offset="1" style="stop-color:#009F80"/>
          </linearGradient>
          <rect x="562.7" y="56.5" clip-path="url(#SVGID_9_)" fill="url(#SVGID_10_)" width="56.4" height="82.4"/>
        </g>
      </g>
      <g>
        <g>
          <defs>
            <polygon id="SVGID_11_" points="570.9,129.6 614.7,177.2 595,134.2 536.4,68.6 &#9;&#9;&#9;&#9;&#9;"/>
          </defs>
          <clipPath id="SVGID_12_">
            <polygon points="570.9,129.6 614.7,177.2 595,134.2 536.4,68.6 &#9;&#9;&#9;&#9;&#9;" transform="matrix(1, 0, 0, 1, 0, 0)" overflow="visible"/>
          </clipPath>
          <linearGradient id="SVGID_13_" gradientUnits="userSpaceOnUse" x1="-2409.7849" y1="1187.7297" x2="-2402.0764" y2="1187.7297" gradientTransform="matrix(0 -14.0757 14.0757 0 -16142.5771 -33742.3086)">
            <stop offset="0" style="stop-color:#FFFFFF"/>
            <stop offset="0" style="stop-color:#FFFFFF"/>
            <stop offset="1" style="stop-color:#009F80"/>
          </linearGradient>
          <rect x="536.4" y="68.6" clip-path="url(#SVGID_12_)" fill="url(#SVGID_13_)" width="78.3" height="108.5"/>
        </g>
      </g>
      <g>
        <g>
          <defs>
            <polygon id="SVGID_14_" points="515.7,56.5 525.3,80.3 562.2,120.3 527.4,56.5 &#9;&#9;&#9;&#9;&#9;"/>
          </defs>
          <clipPath id="SVGID_15_">
            <polygon points="515.7,56.5 525.3,80.3 562.2,120.3 527.4,56.5 &#9;&#9;&#9;&#9;&#9;" transform="matrix(1, 0, 0, 1, 0, 0)" overflow="visible"/>
          </clipPath>
          <linearGradient id="SVGID_16_" gradientUnits="userSpaceOnUse" x1="-2482.8582" y1="1300.3119" x2="-2475.1489" y2="1300.3119" gradientTransform="matrix(0 -8.2759 8.2759 0 -10222.3506 -20427.584)">
            <stop offset="0" style="stop-color:#FFFFFF"/>
            <stop offset="0" style="stop-color:#FFFFFF"/>
            <stop offset="1" style="stop-color:#009F80"/>
          </linearGradient>
          <rect x="515.7" y="56.5" clip-path="url(#SVGID_15_)" fill="url(#SVGID_16_)" width="46.4" height="63.8"/>
        </g>
      </g>
      <g>
        <g>
          <defs>
            <polygon id="SVGID_17_" points="503.8,56.5 521.4,76.8 512.8,56.5 &#9;&#9;&#9;&#9;&#9;"/>
          </defs>
          <clipPath id="SVGID_18_">
            <polygon points="503.8,56.5 521.4,76.8 512.8,56.5 &#9;&#9;&#9;&#9;&#9;" transform="matrix(1, 0, 0, 1, 0, 0)" overflow="visible"/>
          </clipPath>
          <linearGradient id="SVGID_19_" gradientUnits="userSpaceOnUse" x1="-2865.6721" y1="1887.2214" x2="-2857.9648" y2="1887.2214" gradientTransform="matrix(0 -2.6382 2.6382 0 -4466.3174 -7483.3901)">
            <stop offset="0" style="stop-color:#FFFFFF"/>
            <stop offset="0" style="stop-color:#FFFFFF"/>
            <stop offset="1" style="stop-color:#009F80"/>
          </linearGradient>
          <rect x="503.8" y="56.5" clip-path="url(#SVGID_18_)" fill="url(#SVGID_19_)" width="17.5" height="20.3"/>
        </g>
      </g>
      <g>
        <g>
          <defs>
            <polygon id="SVGID_20_" points="562.2,53.5 617.3,53.5 570.3,27 &#9;&#9;&#9;&#9;&#9;"/>
          </defs>
          <clipPath id="SVGID_21_">
            <polygon points="562.2,53.5 617.3,53.5 570.3,27 &#9;&#9;&#9;&#9;&#9;" transform="matrix(1, 0, 0, 1, 0, 0)" overflow="visible"/>
          </clipPath>
          <linearGradient id="SVGID_22_" gradientUnits="userSpaceOnUse" x1="-2726.0078" y1="1703.0828" x2="-2718.2959" y2="1703.0828" gradientTransform="matrix(0 -3.4492 3.4492 0 -5284.5229 -9348.998)">
            <stop offset="0" style="stop-color:#FFFFFF"/>
            <stop offset="0" style="stop-color:#FFFFFF"/>
            <stop offset="1" style="stop-color:#009F80"/>
          </linearGradient>
          <rect x="562.2" y="27" clip-path="url(#SVGID_21_)" fill="url(#SVGID_22_)" width="55.1" height="26.6"/>
        </g>
      </g>
      <g>
        <g>
          <defs>
            <path id="SVGID_23_" d="M530.8,53.5h28.6l8.3-26.6l-1.6-1.2C548.5,37.7,536.7,47,530.8,53.5"/>
          </defs>
          <clipPath id="SVGID_24_">
            <path d="M530.8,53.5h28.6l8.3-26.6l-1.6-1.2C548.5,37.7,536.7,47,530.8,53.5" transform="matrix(1, 0, 0, 1, 0, 0)" overflow="visible"/>
          </clipPath>
          <linearGradient id="SVGID_25_" gradientUnits="userSpaceOnUse" x1="-2707.1558" y1="1663.3525" x2="-2699.4504" y2="1663.3525" gradientTransform="matrix(0 -3.6079 3.6079 0 -5451.9595 -9713.5986)">
            <stop offset="0" style="stop-color:#FFFFFF"/>
            <stop offset="0" style="stop-color:#FFFFFF"/>
            <stop offset="1" style="stop-color:#009F80"/>
          </linearGradient>
          <rect x="530.8" y="25.7" clip-path="url(#SVGID_24_)" fill="url(#SVGID_25_)" width="36.9" height="27.8"/>
        </g>
      </g>
      <g>
        <g>
          <defs>
            <path id="SVGID_26_" d="M523.6,30.2l4.3,22.1c9.3-9.9,21.3-19.5,35.8-28.6l-18-11.2L523.6,30.2z"/>
          </defs>
          <clipPath id="SVGID_27_">
            <path d="M523.6,30.2l4.3,22.1c9.3-9.9,21.3-19.5,35.8-28.6l-18-11.2L523.6,30.2z" transform="matrix(1, 0, 0, 1, 0, 0)" overflow="visible"/>
          </clipPath>
          <linearGradient id="SVGID_28_" gradientUnits="userSpaceOnUse" x1="-2583.1948" y1="1468.7928" x2="-2575.4922" y2="1468.7928" gradientTransform="matrix(0 -5.167 5.167 0 -7045.6025 -13295.168)">
            <stop offset="0" style="stop-color:#FFFFFF"/>
            <stop offset="0" style="stop-color:#FFFFFF"/>
            <stop offset="1" style="stop-color:#009F80"/>
          </linearGradient>
          <rect x="523.6" y="12.4" clip-path="url(#SVGID_27_)" fill="url(#SVGID_28_)" width="40.1" height="39.8"/>
        </g>
      </g>
      <g>
        <g>
          <defs>
            <polygon id="SVGID_29_" points="519.2,33.4 514.9,53.5 526,53.5 521.4,32.3 &#9;&#9;&#9;&#9;&#9;"/>
          </defs>
          <clipPath id="SVGID_30_">
            <polygon points="519.2,33.4 514.9,53.5 526,53.5 521.4,32.3 &#9;&#9;&#9;&#9;&#9;" transform="matrix(1, 0, 0, 1, 0, 0)" overflow="visible"/>
          </clipPath>
          <linearGradient id="SVGID_31_" gradientUnits="userSpaceOnUse" x1="-2833.7722" y1="1852.4252" x2="-2826.0608" y2="1852.4252" gradientTransform="matrix(0 -2.7563 2.7563 0 -4585.3896 -7757.1777)">
            <stop offset="0" style="stop-color:#FFFFFF"/>
            <stop offset="0" style="stop-color:#FFFFFF"/>
            <stop offset="1" style="stop-color:#009F80"/>
          </linearGradient>
          <rect x="514.9" y="32.3" clip-path="url(#SVGID_30_)" fill="url(#SVGID_31_)" width="11.1" height="21.3"/>
        </g>
      </g>
      <g>
        <g>
          <defs>
            <path id="SVGID_32_" d="M552.1,12.9l15.1,9.6c6.6-3.7,14.7-6.9,24.4-9.6H552.1z"/>
          </defs>
          <clipPath id="SVGID_33_">
            <path d="M552.1,12.9l15.1,9.6c6.6-3.7,14.7-6.9,24.4-9.6H552.1z" transform="matrix(1, 0, 0, 1, 0, 0)" overflow="visible"/>
          </clipPath>
          <linearGradient id="SVGID_34_" gradientUnits="userSpaceOnUse" x1="-3460.8716" y1="2892.408" x2="-3453.167" y2="2892.408" gradientTransform="matrix(0 -1.248 1.248 0 -3037.875 -4296.6436)">
            <stop offset="0" style="stop-color:#FFFFFF"/>
            <stop offset="0" style="stop-color:#FFFFFF"/>
            <stop offset="1" style="stop-color:#009F80"/>
          </linearGradient>
          <rect x="552.1" y="12.9" clip-path="url(#SVGID_33_)" fill="url(#SVGID_34_)" width="39.5" height="9.6"/>
        </g>
      </g>
      <g>
        <g>
          <defs>
            <polygon id="SVGID_35_" points="503.2,53.5 512.5,53.5 515.4,38 &#9;&#9;&#9;&#9;&#9;"/>
          </defs>
          <clipPath id="SVGID_36_">
            <polygon points="503.2,53.5 512.5,53.5 515.4,38 &#9;&#9;&#9;&#9;&#9;" transform="matrix(1, 0, 0, 1, 0, 0)" overflow="visible"/>
          </clipPath>
          <linearGradient id="SVGID_37_" gradientUnits="userSpaceOnUse" x1="-3029.5381" y1="2150.5906" x2="-3021.8279" y2="2150.5906" gradientTransform="matrix(0 -2.02 2.02 0 -3834.8928 -6066.1187)">
            <stop offset="0" style="stop-color:#FFFFFF"/>
            <stop offset="0" style="stop-color:#FFFFFF"/>
            <stop offset="1" style="stop-color:#009F80"/>
          </linearGradient>
          <rect x="503.2" y="38" clip-path="url(#SVGID_36_)" fill="url(#SVGID_37_)" width="12.2" height="15.6"/>
        </g>
      </g>
      <g>
        <g>
          <defs>
            <polygon id="SVGID_38_" points="681.4,56.5 649.1,127.3 711.1,56.5 &#9;&#9;&#9;&#9;&#9;"/>
          </defs>
          <clipPath id="SVGID_39_">
            <polygon points="681.4,56.5 649.1,127.3 711.1,56.5 &#9;&#9;&#9;&#9;&#9;" transform="matrix(1, 0, 0, 1, 0, 0)" overflow="visible"/>
          </clipPath>
          <linearGradient id="SVGID_40_" gradientUnits="userSpaceOnUse" x1="-2465.2178" y1="1286.2443" x2="-2457.5063" y2="1286.2443" gradientTransform="matrix(0 -9.1812 9.1812 0 -11129.1162 -22506.3574)">
            <stop offset="0" style="stop-color:#FFFFFF"/>
            <stop offset="0" style="stop-color:#FFFFFF"/>
            <stop offset="1" style="stop-color:#009F80"/>
          </linearGradient>
          <rect x="649.1" y="56.5" clip-path="url(#SVGID_39_)" fill="url(#SVGID_40_)" width="62.1" height="70.8"/>
        </g>
      </g>
      <g>
        <g>
          <defs>
            <polygon id="SVGID_41_" points="621.8,56.5 640.1,138.9 678.2,56.5 &#9;&#9;&#9;&#9;&#9;"/>
          </defs>
          <clipPath id="SVGID_42_">
            <polygon points="621.8,56.5 640.1,138.9 678.2,56.5 &#9;&#9;&#9;&#9;&#9;" transform="matrix(1, 0, 0, 1, 0, 0)" overflow="visible"/>
          </clipPath>
          <linearGradient id="SVGID_43_" gradientUnits="userSpaceOnUse" x1="-2442.4202" y1="1246.4482" x2="-2434.7107" y2="1246.4482" gradientTransform="matrix(0 -10.688 10.688 0 -12672.0381 -25965.6855)">
            <stop offset="0" style="stop-color:#FFFFFF"/>
            <stop offset="0" style="stop-color:#FFFFFF"/>
            <stop offset="1" style="stop-color:#009F80"/>
          </linearGradient>
          <rect x="621.8" y="56.5" clip-path="url(#SVGID_42_)" fill="url(#SVGID_43_)" width="56.4" height="82.4"/>
        </g>
      </g>
      <g>
        <g>
          <defs>
            <polygon id="SVGID_44_" points="645.9,134.2 626.2,177.2 670.1,129.6 704.5,68.6 &#9;&#9;&#9;&#9;&#9;"/>
          </defs>
          <clipPath id="SVGID_45_">
            <polygon points="645.9,134.2 626.2,177.2 670.1,129.6 704.5,68.6 &#9;&#9;&#9;&#9;&#9;" transform="matrix(1, 0, 0, 1, 0, 0)" overflow="visible"/>
          </clipPath>
          <linearGradient id="SVGID_46_" gradientUnits="userSpaceOnUse" x1="-2062.3308" y1="1173.339" x2="-2054.6177" y2="1173.339" gradientTransform="matrix(10.1514 0 0 10.1514 21561.7441 -11788.1836)">
            <stop offset="0" style="stop-color:#FFFFFF"/>
            <stop offset="0" style="stop-color:#FFFFFF"/>
            <stop offset="1" style="stop-color:#009F80"/>
          </linearGradient>
          <rect x="626.2" y="68.6" clip-path="url(#SVGID_45_)" fill="url(#SVGID_46_)" width="78.3" height="108.5"/>
        </g>
      </g>
      <g>
        <g>
          <defs>
            <polygon id="SVGID_47_" points="713.5,56.5 678.8,120.3 715.7,80.3 725.2,56.5 &#9;&#9;&#9;&#9;&#9;"/>
          </defs>
          <clipPath id="SVGID_48_">
            <polygon points="713.5,56.5 678.8,120.3 715.7,80.3 725.2,56.5 &#9;&#9;&#9;&#9;&#9;" transform="matrix(1, 0, 0, 1, 0, 0)" overflow="visible"/>
          </clipPath>
          <linearGradient id="SVGID_49_" gradientUnits="userSpaceOnUse" x1="-2482.8582" y1="1317.4642" x2="-2475.1489" y2="1317.4642" gradientTransform="matrix(0 -8.2759 8.2759 0 -10201.2021 -20427.584)">
            <stop offset="0" style="stop-color:#FFFFFF"/>
            <stop offset="0" style="stop-color:#FFFFFF"/>
            <stop offset="1" style="stop-color:#009F80"/>
          </linearGradient>
          <rect x="678.8" y="56.5" clip-path="url(#SVGID_48_)" fill="url(#SVGID_49_)" width="46.4" height="63.8"/>
        </g>
      </g>
      <g>
        <g>
          <defs>
            <polygon id="SVGID_50_" points="728.1,56.5 719.6,76.8 737.1,56.5 &#9;&#9;&#9;&#9;&#9;"/>
          </defs>
          <clipPath id="SVGID_51_">
            <polygon points="728.1,56.5 719.6,76.8 737.1,56.5 &#9;&#9;&#9;&#9;&#9;" transform="matrix(1, 0, 0, 1, 0, 0)" overflow="visible"/>
          </clipPath>
          <linearGradient id="SVGID_52_" gradientUnits="userSpaceOnUse" x1="-2865.6721" y1="1958.4128" x2="-2857.9648" y2="1958.4128" gradientTransform="matrix(0 -2.6382 2.6382 0 -4438.335 -7483.3901)">
            <stop offset="0" style="stop-color:#FFFFFF"/>
            <stop offset="0" style="stop-color:#FFFFFF"/>
            <stop offset="1" style="stop-color:#009F80"/>
          </linearGradient>
          <rect x="719.6" y="56.5" clip-path="url(#SVGID_51_)" fill="url(#SVGID_52_)" width="17.5" height="20.3"/>
        </g>
      </g>
      <g>
        <g>
          <defs>
            <polygon id="SVGID_53_" points="623.7,53.5 678.8,53.5 670.6,27 &#9;&#9;&#9;&#9;&#9;"/>
          </defs>
          <clipPath id="SVGID_54_">
            <polygon points="623.7,53.5 678.8,53.5 670.6,27 &#9;&#9;&#9;&#9;&#9;" transform="matrix(1, 0, 0, 1, 0, 0)" overflow="visible"/>
          </clipPath>
          <linearGradient id="SVGID_55_" gradientUnits="userSpaceOnUse" x1="-2726.0078" y1="1718.5992" x2="-2718.2959" y2="1718.5992" gradientTransform="matrix(0 -3.4492 3.4492 0 -5276.5425 -9348.998)">
            <stop offset="0" style="stop-color:#FFFFFF"/>
            <stop offset="0" style="stop-color:#FFFFFF"/>
            <stop offset="1" style="stop-color:#009F80"/>
          </linearGradient>
          <rect x="623.7" y="27" clip-path="url(#SVGID_54_)" fill="url(#SVGID_55_)" width="55.1" height="26.6"/>
        </g>
      </g>
      <g>
        <g>
          <defs>
            <path id="SVGID_56_" d="M673.2,27l8.3,26.6h28.6c-5.8-6.6-17.6-15.9-35.3-27.8L673.2,27z"/>
          </defs>
          <clipPath id="SVGID_57_">
            <path d="M673.2,27l8.3,26.6h28.6c-5.8-6.6-17.6-15.9-35.3-27.8L673.2,27z" transform="matrix(1, 0, 0, 1, 0, 0)" overflow="visible"/>
          </clipPath>
          <linearGradient id="SVGID_58_" gradientUnits="userSpaceOnUse" x1="-2707.1558" y1="1697.7058" x2="-2699.4504" y2="1697.7058" gradientTransform="matrix(0 -3.6079 3.6079 0 -5433.5024 -9713.5986)">
            <stop offset="0" style="stop-color:#FFFFFF"/>
            <stop offset="0" style="stop-color:#FFFFFF"/>
            <stop offset="1" style="stop-color:#009F80"/>
          </linearGradient>
          <rect x="673.2" y="25.7" clip-path="url(#SVGID_57_)" fill="url(#SVGID_58_)" width="36.9" height="27.8"/>
        </g>
      </g>
      <g>
        <g>
          <defs>
            <path id="SVGID_59_" d="M677.2,23.6c14.6,9.1,26.5,18.7,35.8,28.6l4.3-22.1l-22-17.8L677.2,23.6z"/>
          </defs>
          <clipPath id="SVGID_60_">
            <path d="M677.2,23.6c14.6,9.1,26.5,18.7,35.8,28.6l4.3-22.1l-22-17.8L677.2,23.6z" transform="matrix(1, 0, 0, 1, 0, 0)" overflow="visible"/>
          </clipPath>
          <linearGradient id="SVGID_61_" gradientUnits="userSpaceOnUse" x1="-2583.1948" y1="1494.6659" x2="-2575.4922" y2="1494.6659" gradientTransform="matrix(0 -5.167 5.167 0 -7025.6885 -13295.168)">
            <stop offset="0" style="stop-color:#FFFFFF"/>
            <stop offset="0" style="stop-color:#FFFFFF"/>
            <stop offset="1" style="stop-color:#009F80"/>
          </linearGradient>
          <rect x="677.2" y="12.4" clip-path="url(#SVGID_60_)" fill="url(#SVGID_61_)" width="40.1" height="39.8"/>
        </g>
      </g>
      <g>
        <g>
          <defs>
            <polygon id="SVGID_62_" points="714.9,53.5 726,53.5 721.7,33.4 719.6,32.3 &#9;&#9;&#9;&#9;&#9;"/>
          </defs>
          <clipPath id="SVGID_63_">
            <polygon points="714.9,53.5 726,53.5 721.7,33.4 719.6,32.3 &#9;&#9;&#9;&#9;&#9;" transform="matrix(1, 0, 0, 1, 0, 0)" overflow="visible"/>
          </clipPath>
          <linearGradient id="SVGID_64_" gradientUnits="userSpaceOnUse" x1="-2833.7722" y1="1915.5774" x2="-2826.0608" y2="1915.5774" gradientTransform="matrix(0 -2.7563 2.7563 0 -4559.4561 -7757.1777)">
            <stop offset="0" style="stop-color:#FFFFFF"/>
            <stop offset="0" style="stop-color:#FFFFFF"/>
            <stop offset="1" style="stop-color:#009F80"/>
          </linearGradient>
          <rect x="714.9" y="32.3" clip-path="url(#SVGID_63_)" fill="url(#SVGID_64_)" width="11.1" height="21.3"/>
        </g>
      </g>
      <g>
        <g>
          <defs>
            <path id="SVGID_65_" d="M649.4,12.9c9.7,2.7,17.8,5.9,24.4,9.6l15.1-9.6H649.4z"/>
          </defs>
          <clipPath id="SVGID_66_">
            <path d="M649.4,12.9c9.7,2.7,17.8,5.9,24.4,9.6l15.1-9.6H649.4z" transform="matrix(1, 0, 0, 1, 0, 0)" overflow="visible"/>
          </clipPath>
          <linearGradient id="SVGID_67_" gradientUnits="userSpaceOnUse" x1="-3460.8716" y1="2960.2644" x2="-3453.167" y2="2960.2644" gradientTransform="matrix(0 -1.248 1.248 0 -3025.2598 -4296.6436)">
            <stop offset="0" style="stop-color:#FFFFFF"/>
            <stop offset="0" style="stop-color:#FFFFFF"/>
            <stop offset="1" style="stop-color:#009F80"/>
          </linearGradient>
          <rect x="649.4" y="12.9" clip-path="url(#SVGID_66_)" fill="url(#SVGID_67_)" width="39.5" height="9.6"/>
        </g>
      </g>
      <g>
        <g>
          <defs>
            <polygon id="SVGID_68_" points="728.5,53.5 737.8,53.5 725.6,38 &#9;&#9;&#9;&#9;&#9;"/>
          </defs>
          <clipPath id="SVGID_69_">
            <polygon points="728.5,53.5 737.8,53.5 725.6,38 &#9;&#9;&#9;&#9;&#9;" transform="matrix(1, 0, 0, 1, 0, 0)" overflow="visible"/>
          </clipPath>
          <linearGradient id="SVGID_70_" gradientUnits="userSpaceOnUse" x1="-3029.5381" y1="2246.4084" x2="-3021.8279" y2="2246.4084" gradientTransform="matrix(0 -2.02 2.02 0 -3806.0452 -6066.1187)">
            <stop offset="0" style="stop-color:#FFFFFF"/>
            <stop offset="0" style="stop-color:#FFFFFF"/>
            <stop offset="1" style="stop-color:#009F80"/>
          </linearGradient>
          <rect x="725.6" y="38" clip-path="url(#SVGID_69_)" fill="url(#SVGID_70_)" width="12.2" height="15.6"/>
        </g>
      </g>
      <g>
        <g>
          <defs>
            <polygon id="SVGID_71_" points="716.8,27.1 704.8,12.6 698.4,12.4 &#9;&#9;&#9;&#9;&#9;"/>
          </defs>
          <clipPath id="SVGID_72_">
            <polygon points="716.8,27.1 704.8,12.6 698.4,12.4 &#9;&#9;&#9;&#9;&#9;" transform="matrix(1, 0, 0, 1, 0, 0)" overflow="visible"/>
          </clipPath>
          <linearGradient id="SVGID_73_" gradientUnits="userSpaceOnUse" x1="-3061.4429" y1="2308.7966" x2="-3053.7317" y2="2308.7966" gradientTransform="matrix(0 -1.9063 1.9063 0 -3693.6089 -5808.9287)">
            <stop offset="0" style="stop-color:#FFFFFF"/>
            <stop offset="0" style="stop-color:#FFFFFF"/>
            <stop offset="1" style="stop-color:#009F80"/>
          </linearGradient>
          <rect x="698.4" y="12.4" clip-path="url(#SVGID_72_)" fill="url(#SVGID_73_)" width="18.5" height="14.7"/>
        </g>
      </g>
      <g>
        <g>
          <defs>
            <polygon id="SVGID_74_" points="536,12.6 524,27.1 542.4,12.4 &#9;&#9;&#9;&#9;&#9;"/>
          </defs>
          <clipPath id="SVGID_75_">
            <polygon points="536,12.6 524,27.1 542.4,12.4 &#9;&#9;&#9;&#9;&#9;" transform="matrix(1, 0, 0, 1, 0, 0)" overflow="visible"/>
          </clipPath>
          <linearGradient id="SVGID_76_" gradientUnits="userSpaceOnUse" x1="-3061.4429" y1="-185.5492" x2="-3053.7317" y2="-185.5492" gradientTransform="matrix(0 -1.9063 -1.9063 0 179.5376 -5808.9287)">
            <stop offset="0" style="stop-color:#FFFFFF"/>
            <stop offset="0" style="stop-color:#FFFFFF"/>
            <stop offset="1" style="stop-color:#009F80"/>
          </linearGradient>
          <rect x="524" y="12.4" clip-path="url(#SVGID_75_)" fill="url(#SVGID_76_)" width="18.5" height="14.7"/>
        </g>
      </g>
      <g>
        <g>
          <defs>
            <polygon id="SVGID_77_" points="602.4,143.7 620.5,182.6 638.5,143.7 620.5,63.3 &#9;&#9;&#9;&#9;&#9;"/>
          </defs>
          <clipPath id="SVGID_78_">
            <polygon points="602.4,143.7 620.5,182.6 638.5,143.7 620.5,63.3 &#9;&#9;&#9;&#9;&#9;" transform="matrix(1, 0, 0, 1, 0, 0)" overflow="visible"/>
          </clipPath>
          <linearGradient id="SVGID_79_" gradientUnits="userSpaceOnUse" x1="-2399.8801" y1="1175.2183" x2="-2392.1702" y2="1175.2183" gradientTransform="matrix(0 -15.4736 15.4736 0 -17564.4062 -36952.1875)">
            <stop offset="0" style="stop-color:#FFFFFF"/>
            <stop offset="0" style="stop-color:#FFFFFF"/>
            <stop offset="1" style="stop-color:#009F80"/>
          </linearGradient>
          <rect x="602.4" y="63.3" clip-path="url(#SVGID_78_)" fill="url(#SVGID_79_)" width="36.1" height="119.3"/>
        </g>
      </g>
      <g>
        <g>
          <defs>
            <path id="SVGID_80_" d="M571.4,24.1l49.1,28.3l49.1-28.3c-15-8-31.4-12-49.1-12C602.8,12.2,586.4,16.2,571.4,24.1"/>
          </defs>
          <clipPath id="SVGID_81_">
            <path d="M571.4,24.1l49.1,28.3l49.1-28.3c-15-8-31.4-12-49.1-12C602.8,12.2,586.4,16.2,571.4,24.1" transform="matrix(1, 0, 0, 1, 0, 0)" overflow="visible"/>
          </clipPath>
          <linearGradient id="SVGID_82_" gradientUnits="userSpaceOnUse" x1="-2579.5962" y1="1475.8667" x2="-2571.8862" y2="1475.8667" gradientTransform="matrix(0 -5.2339 5.2339 0 -7104.0391 -13448.8486)">
            <stop offset="0" style="stop-color:#FFFFFF"/>
            <stop offset="0" style="stop-color:#FFFFFF"/>
            <stop offset="1" style="stop-color:#009F80"/>
          </linearGradient>
          <rect x="571.4" y="12.1" clip-path="url(#SVGID_81_)" fill="url(#SVGID_82_)" width="98.2" height="40.4"/>
        </g>
      </g>
    </g>
  </g>
</svg>